<?xml version="1.0" standalone="no"?>
<!DOCTYPE svg PUBLIC "-//W3C//DTD SVG 20010904//EN"
 "http://www.w3.org/TR/2001/REC-SVG-20010904/DTD/svg10.dtd">
<svg version="1.0" xmlns="http://www.w3.org/2000/svg"
 width="512.000000pt" height="512.000000pt" viewBox="0 0 512.000000 512.000000"
 preserveAspectRatio="xMidYMid meet">

<g transform="translate(0.000000,512.000000) scale(0.100000,-0.100000)"
fill="#000000" stroke="none">
<path d="M3875 5097 c-35 -16 -92 -72 -101 -99 -5 -17 -23 -18 -289 -18 -156
0 -294 -4 -307 -9 -13 -5 -129 -104 -258 -219 -129 -116 -238 -207 -242 -204
-3 4 -25 93 -48 197 -35 160 -45 194 -66 213 l-25 22 -400 0 c-431 0 -544 -8
-678 -46 -400 -115 -756 -482 -895 -924 -52 -162 -57 -204 -63 -450 l-5 -234
-204 -503 c-112 -277 -208 -523 -214 -548 -19 -84 20 -184 92 -238 18 -13 94
-57 168 -97 74 -40 141 -77 148 -82 9 -8 12 -93 12 -362 0 -260 4 -364 14
-401 44 -168 160 -293 332 -357 58 -22 70 -23 571 -26 l512 -3 3 -328 c3 -307
4 -330 22 -350 19 -21 19 -21 781 -21 725 0 763 1 778 18 16 17 17 88 17 818
l0 800 68 85 c259 323 423 722 472 1144 6 55 14 115 16 133 l5 32 148 0 147 0
17 -34 c27 -58 110 -106 181 -106 53 0 132 44 162 90 39 59 45 142 14 206 -40
83 -151 131 -237 104 -53 -17 -101 -56 -120 -96 l-17 -34 -148 0 -148 0 0 133
c0 121 -2 136 -20 152 -12 11 -85 32 -192 56 -95 22 -181 42 -190 46 -14 6 29
49 205 205 l222 197 265 0 265 0 30 -46 c71 -110 230 -123 315 -26 41 46 51
76 51 142 0 110 -89 196 -201 195 -77 -1 -141 -40 -176 -106 l-15 -28 -294 0
-294 0 -68 -59 c-38 -32 -151 -133 -253 -224 l-185 -165 -17 31 c-9 18 -17 39
-18 48 0 8 52 97 115 198 141 224 148 236 139 264 -4 12 -41 57 -82 100 l-75
77 201 0 c189 0 201 -1 207 -19 25 -80 143 -136 234 -111 131 35 193 202 115
312 -40 57 -94 83 -169 83 -74 0 -117 -23 -165 -88 l-35 -47 -259 0 -260 0
-87 85 c-69 68 -92 85 -116 85 -21 0 -92 -39 -236 -130 l-206 -129 -37 15
c-44 19 -70 -10 210 238 l210 186 271 0 271 0 17 -35 c10 -21 36 -48 64 -65
39 -25 57 -30 107 -30 76 0 128 27 170 88 26 37 31 53 31 105 0 120 -72 198
-188 204 -38 2 -74 -2 -92 -10z m108 -128 c30 -16 37 -28 37 -66 0 -56 -69
-84 -110 -43 -29 29 -26 74 6 99 31 24 37 25 67 10z m-1833 -304 l0 -175 -148
0 -148 0 -17 34 c-31 66 -125 114 -200 102 -140 -23 -217 -166 -157 -292 24
-49 86 -97 142 -109 78 -18 161 19 211 93 l28 42 145 0 144 0 0 -165 0 -165
-295 0 -294 0 -127 -96 c-125 -96 -127 -96 -163 -86 -66 20 -82 21 -132 8
-120 -31 -183 -167 -130 -281 59 -129 234 -154 333 -49 36 39 50 78 49 146 l0
57 104 81 103 80 276 0 276 0 -2 -162 -3 -162 -38 -8 c-221 -46 -385 -290
-349 -521 23 -148 126 -289 255 -351 261 -123 570 10 649 281 l22 73 163 0
163 0 0 -273 0 -273 -84 -109 -83 -108 -70 -1 c-59 -1 -76 -5 -110 -29 -164
-114 -87 -370 112 -370 144 0 242 141 189 273 l-16 40 63 83 c35 45 77 99 94
121 l30 38 5 302 5 301 148 3 147 3 0 -150 0 -150 -27 -15 c-70 -36 -107 -106
-101 -191 4 -72 30 -117 86 -156 30 -20 48 -24 113 -24 86 0 108 10 163 78 69
86 34 241 -65 293 l-29 15 0 149 0 150 186 0 187 0 -7 -72 c-41 -443 -207
-855 -475 -1178 l-71 -85 0 -782 0 -783 -120 0 -120 0 0 298 0 298 -95 123
c-52 68 -95 126 -95 130 0 3 7 28 15 55 39 128 -55 257 -187 257 -64 0 -93
-10 -137 -47 -100 -84 -91 -242 18 -319 37 -26 52 -30 112 -31 l69 -1 85 -111
85 -111 -2 -268 -3 -268 -477 -3 -478 -2 0 312 0 313 44 28 c60 38 139 124
170 185 54 107 56 127 56 634 0 455 -1 469 -20 488 -23 23 -58 26 -86 6 -18
-14 -19 -34 -24 -493 -5 -470 -6 -479 -28 -535 -30 -75 -96 -147 -174 -189
l-63 -34 -520 0 -520 0 -56 28 c-76 38 -145 109 -183 187 l-31 65 -5 395 c-3
217 -9 400 -13 407 -4 7 -89 56 -189 110 -198 107 -223 129 -215 193 3 19 98
264 211 543 l206 509 0 172 c0 198 11 304 45 433 111 420 416 771 776 894 116
39 192 47 452 48 l247 1 0 -175z m325 153 c3 -13 27 -119 53 -236 53 -229 53
-230 124 -252 21 -6 67 -24 104 -40 36 -17 78 -30 92 -30 17 0 101 47 222 124
l195 124 179 -177 178 -178 -126 -200 c-69 -110 -126 -210 -126 -222 0 -12 11
-43 24 -69 12 -26 35 -80 50 -119 l28 -73 51 -15 c29 -8 135 -33 237 -55 102
-23 189 -45 193 -49 4 -4 7 -46 5 -92 l-3 -84 -406 -3 -407 -2 -7 55 c-32 258
-189 507 -411 652 -122 79 -209 111 -411 149 l-23 4 0 405 0 405 90 0 c85 0
90 -1 95 -22z m-765 -348 c41 -41 13 -110 -45 -110 -24 0 -39 7 -54 26 -12 15
-21 32 -21 39 0 7 9 24 21 39 25 32 70 35 99 6z m2544 5 c26 -27 29 -56 9 -84
-55 -74 -160 1 -107 77 18 26 74 30 98 7z m636 -405 c51 -51 -9 -138 -74 -109
-21 10 -46 46 -46 68 0 5 9 20 21 35 25 32 70 35 99 6z m-2484 -200 c263 -67
475 -263 560 -516 14 -43 28 -102 31 -131 l6 -53 -160 0 -161 0 -11 47 c-20
78 -63 154 -121 214 -59 60 -113 92 -200 120 l-55 17 -3 161 c-3 186 -13 173
114 141z m-1169 -162 c30 -28 29 -63 -3 -94 -39 -40 -95 -20 -109 38 -5 21 -1
33 19 52 31 32 62 33 93 4z m1084 -288 c55 -15 128 -70 166 -124 72 -105 81
-226 23 -342 -55 -113 -161 -178 -290 -178 -66 -1 -85 4 -142 32 -243 119
-254 458 -19 585 84 46 161 54 262 27z m2312 -281 c32 -43 2 -99 -54 -99 -60
0 -90 69 -48 111 28 28 76 22 102 -12z m-1078 -544 c14 -13 25 -33 25 -45 0
-29 -44 -70 -74 -70 -28 0 -66 42 -66 72 0 25 44 68 70 68 12 0 32 -11 45 -25z
m-741 -466 c34 -27 36 -81 4 -103 -73 -51 -151 48 -82 103 15 12 32 21 39 21
7 0 24 -9 39 -21z m25 -983 c29 -31 25 -73 -10 -98 -34 -25 -75 -15 -94 23
-37 70 50 133 104 75z"/>
</g>
</svg>
